<svg width="32" height="32" viewBox="0 0 32 32" fill="none" xmlns="http://www.w3.org/2000/svg">
  <!-- 大脑形状的主体 -->
  <path d="M16 4C19.5 4 22 6 24 8.5C26 11 26.5 14 25 17C23.5 20 21 22 18 23C17 23.3333 16 23.6667 15 24"
    stroke="#4285f4" stroke-width="2.5" stroke-linecap="round"/>
  
  <!-- 思维线条 -->
  <path d="M8 12C10 10 12.5 9 15 9C17.5 9 19.5 10 21 12"
    stroke="#00acc1" stroke-width="2.5" stroke-linecap="round"/>
  
  <!-- 创意火花 -->
  <path d="M16 15L18 17M14 17L16 19M16 13L16 15"
    stroke="#34a853" stroke-width="2.5" stroke-linecap="round"/>
  
  <!-- 连接线 -->
  <path d="M12 20C14 18.5 15.5 18 17 18C18.5 18 20 18.5 22 20"
    stroke="#4285f4" stroke-width="2.5" stroke-linecap="round"/>
</svg> 